<svg width="28" height="28" viewBox="0 0 28 28" fill="none" xmlns="http://www.w3.org/2000/svg">
<circle cx="14" cy="14" r="14" fill="white" fill-opacity="0.45"/>
<path d="M13.0939 7.47842C9.83251 7.47842 7.17947 10.1314 7.17947 13.3928C7.17947 16.6542 9.83251 19.3072 13.0939 19.3072C14.0909 19.3072 15.071 19.0706 15.899 18.6144C15.9653 18.6942 16.0389 18.7677 16.1187 18.8341L17.8085 20.5239C17.9645 20.6995 18.1548 20.8413 18.3676 20.9407C18.5805 21.0401 18.8114 21.0949 19.0462 21.1018C19.2809 21.1087 19.5147 21.0676 19.733 20.9809C19.9513 20.8942 20.1496 20.7638 20.3157 20.5977C20.4818 20.4316 20.6121 20.2333 20.6988 20.015C20.7855 19.7967 20.8267 19.563 20.8198 19.3282C20.8128 19.0934 20.758 18.8625 20.6586 18.6497C20.5593 18.4369 20.4174 18.2466 20.2419 18.0905L18.552 16.4007C18.4697 16.3184 18.3791 16.2448 18.2817 16.181C18.7379 15.353 19.0252 14.3898 19.0252 13.3759C19.0252 10.1145 16.3721 7.46152 13.1108 7.46152L13.0939 7.47842ZM13.0939 9.16825C15.4427 9.16825 17.3185 11.044 17.3185 13.3928C17.3185 14.5081 16.9129 15.5389 16.2032 16.2993C16.1863 16.3162 16.1694 16.3331 16.1525 16.35C16.0727 16.4163 15.9991 16.4899 15.9328 16.5697C15.1893 17.2456 14.1754 17.6343 13.077 17.6343C10.7281 17.6343 8.85241 15.7586 8.85241 13.4097C8.85241 11.0609 10.7281 9.18514 13.077 9.18514L13.0939 9.16825Z" fill="white"/>
</svg>
